<?xml version="1.0" encoding="UTF-8"?>
<!DOCTYPE svg PUBLIC "-//W3C//DTD SVG 1.1//EN" "http://www.w3.org/Graphics/SVG/1.1/DTD/svg11.dtd">
<svg xmlns="http://www.w3.org/2000/svg" style="background: transparent; background-color: transparent; color-scheme: light;" xmlns:xlink="http://www.w3.org/1999/xlink" version="1.1" width="131px" height="179px" viewBox="0 0 131 179"><defs/><g><g data-cell-id="0"><g data-cell-id="1"><g data-cell-id="HwdR9HV6JxeAKPgYVqx5-2"/><g data-cell-id="HwdR9HV6JxeAKPgYVqx5-3"/><g data-cell-id="HwdR9HV6JxeAKPgYVqx5-12"/><g data-cell-id="HwdR9HV6JxeAKPgYVqx5-23"><g transform="translate(0.5,0.5)"/><g data-cell-id="HwdR9HV6JxeAKPgYVqx5-16"><g><ellipse cx="43" cy="85.49" rx="36.66921313980134" ry="36.66921313980134" fill="transparent" stroke="#000000" style="stroke: rgb(0, 0, 0);" stroke-width="14" pointer-events="all"/></g></g><g data-cell-id="HwdR9HV6JxeAKPgYVqx5-17"><g transform="translate(0.5,0.5)"><path d="M 70.51 63.14 L 96.79 33.82" fill="none" stroke="#000000" style="stroke: rgb(0, 0, 0);" stroke-width="11" stroke-miterlimit="10" pointer-events="stroke"/><path d="M 108.13 21.16 L 103.12 39.49 L 90.46 28.14 Z" fill="#000000" style="fill: rgb(0, 0, 0); stroke: rgb(0, 0, 0);" stroke="#000000" stroke-width="11" stroke-miterlimit="10" pointer-events="all"/></g></g><g data-cell-id="HwdR9HV6JxeAKPgYVqx5-18"><g transform="translate(0.5,0.5)"><path d="M 43 121.5 L 43 169.5" fill="none" stroke="#000000" style="stroke: rgb(0, 0, 0);" stroke-width="11" stroke-miterlimit="10" pointer-events="stroke"/></g></g><g data-cell-id="HwdR9HV6JxeAKPgYVqx5-19"><g transform="translate(0.5,0.5)"><path d="M 22.69 153 L 43 153 L 63.32 153" fill="none" stroke="#000000" style="stroke: rgb(0, 0, 0);" stroke-width="11" stroke-miterlimit="10" pointer-events="stroke"/></g></g><g data-cell-id="HwdR9HV6JxeAKPgYVqx5-15"><g><g><svg xmlns="http://www.w3.org/2000/svg" viewBox="11.467681884765625 32.550472259521484 233.0551300048828 177.6495361328125" width="59.47" height="45.44" style="font-family: initial;" id="svg-image-Lpp8Uw8sX_t2Gb__jTl0" x="12.5" y="-0.5">&#xa;<style type="text/css">#svg-image-Lpp8Uw8sX_t2Gb__jTl0 .crown { fill: light-dark(rgb(255, 177, 62), rgb(255, 251, 0)); stroke: transparent; stroke-width: 6px; }&#xa;</style>&#xa;<path class="crown" d="M238.7,73.5A15.9,15.9,0,0,0,222,71.2L171.4,93.7,142,40.7a16.1,16.1,0,0,0-28,0l-29.4,53L34,71.2A16,16,0,0,0,11.9,89.5L37.3,197.8a15.9,15.9,0,0,0,7.4,10.1,16.2,16.2,0,0,0,8.3,2.3,15.2,15.2,0,0,0,4.2-.6,265.5,265.5,0,0,1,141.5,0,16.5,16.5,0,0,0,12.5-1.7,15.6,15.6,0,0,0,7.4-10.1L244.1,89.5A16,16,0,0,0,238.7,73.5Z"/>&#xa;</svg></g></g></g></g></g></g></g></svg>