<?xml version="1.0" encoding="UTF-8"?>
<!DOCTYPE svg PUBLIC "-//W3C//DTD SVG 1.1//EN" "http://www.w3.org/Graphics/SVG/1.1/DTD/svg11.dtd">
<svg xmlns="http://www.w3.org/2000/svg" style="background: transparent; background-color: transparent; color-scheme: light dark;" xmlns:xlink="http://www.w3.org/1999/xlink" version="1.1" width="96px" height="94px" viewBox="0 0 96 94"><defs/><g><g data-cell-id="0"><g data-cell-id="1"><g data-cell-id="qo042cASag-sI6KHMQbM-38"><g><g><svg xmlns="http://www.w3.org/2000/svg" viewBox="0.9997566938400269 2.0980000495910645 34.00004577636719 32.52900695800781" width="95.82" height="93" x="0" y="0" style="font-family: initial;"><path fill="#FFAC33" d="M27.287 34.627c-.404 0-.806-.124-1.152-.371L18 28.422l-8.135 5.834c-.693.496-1.623.496-2.312-.008-.689-.499-.979-1.385-.721-2.194l3.034-9.792-8.062-5.681c-.685-.505-.97-1.393-.708-2.203.264-.808 1.016-1.357 1.866-1.363L12.947 13l3.179-9.549c.268-.809 1.023-1.353 1.874-1.353.851 0 1.606.545 1.875 1.353L23 13l10.036.015c.853.006 1.606.556 1.867 1.363.263.81-.022 1.698-.708 2.203l-8.062 5.681 3.034 9.792c.26.809-.033 1.695-.72 2.194-.347.254-.753.379-1.16.379z"/></svg></g></g></g><g data-cell-id="HwdR9HV6JxeAKPgYVqx5-1"><g><g><svg width="71.76" height="73" viewBox="0.9818114042282104 0.9700859189033508 20.614158630371094 20.637540817260742" version="1.1" id="svg831" xmlns="http://www.w3.org/2000/svg" x="12.03" y="15" style="font-family: initial;">&#xa;  <defs id="defs825">&#xa;    <pattern id="EMFhbasepattern" patternUnits="userSpaceOnUse" width="6" height="6" x="0" y="0"/>&#xa;    <pattern id="EMFhbasepattern-9" patternUnits="userSpaceOnUse" width="6" height="6" x="0" y="0"/>&#xa;    <pattern id="EMFhbasepattern-0" patternUnits="userSpaceOnUse" width="6" height="6" x="0" y="0"/>&#xa;    <pattern id="EMFhbasepattern-7" patternUnits="userSpaceOnUse" width="6" height="6" x="0" y="0"/>&#xa;    <pattern id="EMFhbasepattern-2" patternUnits="userSpaceOnUse" width="6" height="6" x="0" y="0"/>&#xa;    <pattern id="EMFhbasepattern-98" patternUnits="userSpaceOnUse" width="6" height="6" x="0" y="0"/>&#xa;    <pattern id="EMFhbasepattern-6" patternUnits="userSpaceOnUse" width="6" height="6" x="0" y="0"/>&#xa;    <pattern id="EMFhbasepattern-01" patternUnits="userSpaceOnUse" width="6" height="6" x="0" y="0"/>&#xa;    <pattern id="EMFhbasepattern-07" patternUnits="userSpaceOnUse" width="6" height="6" x="0" y="0"/>&#xa;    <pattern id="EMFhbasepattern-8" patternUnits="userSpaceOnUse" width="6" height="6" x="0" y="0"/>&#xa;    <pattern id="EMFhbasepattern-4" patternUnits="userSpaceOnUse" width="6" height="6" x="0" y="0"/>&#xa;    <pattern id="EMFhbasepattern-40" patternUnits="userSpaceOnUse" width="6" height="6" x="0" y="0"/>&#xa;    <pattern id="EMFhbasepattern-08" patternUnits="userSpaceOnUse" width="6" height="6" x="0" y="0"/>&#xa;    <pattern id="EMFhbasepattern-04" patternUnits="userSpaceOnUse" width="6" height="6" x="0" y="0"/>&#xa;    <pattern id="EMFhbasepattern-014" patternUnits="userSpaceOnUse" width="6" height="6" x="0" y="0"/>&#xa;    <pattern id="EMFhbasepattern-27" patternUnits="userSpaceOnUse" width="6" height="6" x="0" y="0"/>&#xa;    <pattern id="EMFhbasepattern-09" patternUnits="userSpaceOnUse" width="6" height="6" x="0" y="0"/>&#xa;    <pattern id="EMFhbasepattern-5" patternUnits="userSpaceOnUse" width="6" height="6" x="0" y="0"/>&#xa;    <pattern id="EMFhbasepattern-018" patternUnits="userSpaceOnUse" width="6" height="6" x="0" y="0"/>&#xa;  </defs>&#xa;  &#xa;    &#xa;    &#xa;    &#xa;    &#xa;    &#xa;  &#xa;  <metadata id="metadata828">&#xa;    &#xa;      &#xa;        image/svg+xml&#xa;        &#xa;      &#xa;    &#xa;  </metadata>&#xa;  <g id="layer1" transform="translate(0,-274.42223)">&#xa;    <g id="g195244" style="display:inline;stroke-width:0.610593" transform="matrix(1.6377511,0,0,1.6377511,-52.533964,-238.83237)">&#xa;      <g id="g167356" style="stroke-width:0.610593">&#xa;        <path style="color:#000000;fill:#fec872;stroke-width:0.610593;stroke-linecap:round;stroke-linejoin:round;-inkscape-stroke:none" d="m 37.085939,318.00977 5.56836,4.79296 1.52539,-0.22664 c 0.236881,-0.23688 0.355632,-0.55379 0.373047,-0.88672 0.01742,-0.33293 -0.05612,-0.6878 -0.191406,-1.05859 -0.270575,-0.74157 -0.792615,-1.55274 -1.443359,-2.3418 -0.0055,-0.007 -0.0114,-0.0133 -0.01758,-0.0195 l -1.921875,-1.91992 c -0.0056,-0.006 -0.01145,-0.012 -0.01758,-0.0176 -0.789314,-0.65016 -1.601792,-1.17154 -2.34375,-1.44141 -0.370978,-0.13493 -0.727407,-0.20726 -1.060546,-0.18945 l 10e-7,7e-5 c -0.333139,0.0178 -0.647663,0.13595 -0.884766,0.37305 z" id="path3492"/>&#xa;        <path style="color:#000000;fill:#46a9e7;stroke-width:0.610593;stroke-linecap:round;stroke-linejoin:round;-inkscape-stroke:none" d="m 36.066768,319.95269 c -0.406833,10e-6 -0.812223,0.15402 -1.121094,0.4629 l -1.609375,1.60937 c -1.038595,1.03859 -0.594701,2.5243 0.48292,3.60192 1.077626,1.07761 2.230368,1.23187 3.268958,0.19334 l 1.74385,-1.53697 c 0.617738,-0.61775 0.617745,-1.6264 0,-2.24414 l -1.642217,-1.62347 c -0.308867,-0.30888 -0.716214,-0.4629 -1.123046,-0.4629 z" id="path1586"/>&#xa;        <path id="path20235" style="fill:#3485d0;fill-opacity:1;stroke-width:0.610593;stroke-linecap:round;stroke-linejoin:round" d="m 36.69901,320.05556 c -0.684715,0.68473 -0.707995,1.82459 -0.0023,2.52832 0.705972,0.70388 1.847908,0.68066 2.532894,-0.004 z"/>&#xa;        <path style="color:#000000;fill:#ffac33;fill-opacity:1;stroke-width:0.610593;stroke-linecap:round;stroke-linejoin:round;-inkscape-stroke:none" d="m 36.734375,321.67187 0.865234,0.87696 c 0.1555,0.29833 0.120141,0.67478 -0.132812,0.92773 l -1.160156,1.16016 c -0.457786,0.45778 -1.201329,0.45295 -1.669922,-0.0156 -0.468605,-0.46862 -0.471457,-1.21017 -0.01367,-1.66797 l 1.160156,-1.16015 c 0.259951,-0.25995 0.649128,-0.29245 0.951172,-0.1211 z" id="path1790"/>&#xa;        <path style="color:#000000;fill:#fec872;stroke-width:0.610593;stroke-linecap:round;stroke-linejoin:round;-inkscape-stroke:none" d="m 37,320.40039 c -0.509027,0.50904 -0.528269,1.35611 -0.002,1.88086 0.526456,0.52489 1.375716,0.50515 1.884765,-0.004 z" id="path2916"/>&#xa;        <path style="color:#000000;fill:#ececec;stroke-width:0.610593;stroke-linecap:round;stroke-linejoin:round;-inkscape-stroke:none" d="m 36.355469,317.68553 -0.25586,0.25781 c -0.451125,0.45112 -0.50325,1.19615 -0.09375,1.69336 1.103556,1.33992 2.327447,2.55143 3.626953,3.61719 0.497909,0.40852 1.242255,0.35532 1.69336,-0.0957 L 41.582031,322.90233 42,321.74023 38.222656,317.84375 Z" id="path3108"/>&#xa;        <path style="color:#000000;fill:#fec872;stroke-width:0.610593;stroke-linecap:round;stroke-linejoin:round;-inkscape-stroke:none" d="m 41.75,314.51758 c -0.434701,0.4347 -0.656103,0.91583 -0.876953,1.36914 -0.22085,0.45331 -0.439283,0.8817 -0.865235,1.29101 -0.107583,0.10275 -0.109346,0.27397 -0.0039,0.37891 l 1.685547,1.68555 c 0.104971,0.10542 0.276184,0.10361 0.378906,-0.004 0.409326,-0.42594 0.837713,-0.64438 1.291016,-0.86523 0.453303,-0.22086 0.934438,-0.44227 1.369141,-0.87696 0.765523,-0.76551 0.693822,-2.0503 -0.117188,-2.86132 -0.405505,-0.40551 -0.929091,-0.62687 -1.447269,-0.65036 -0.518177,-0.0235 -1.031305,0.1505 -1.414065,0.53326 z" id="path3684"/>&#xa;        <path id="path26688" style="fill:#cccccc;fill-opacity:1;stroke-width:2.30776;stroke-linecap:round;stroke-linejoin:round" d="m 158.74023,157.50586 -14.27734,-14.72656 -7.05664,-0.59766 -0.9668,0.97461 c -0.36104,0.36103 -0.65339,0.77168 -0.87695,1.21289 5.61983,7.4139 12.12304,13.85247 19.41602,19.375 0.44193,-0.22398 0.85317,-0.51731 1.21484,-0.87891 l 0.9668,-0.96679 z" transform="matrix(0.26458334,0,0,0.26458334,0,280.06666)"/>&#xa;        <path style="color:#000000;fill:#46a9e7;stroke-width:0.610593;stroke-linecap:round;stroke-linejoin:round;-inkscape-stroke:none" d="m 35.716797,315.13672 c -0.486298,0.48631 -0.504503,1.32979 -0.07813,1.94336 1.803163,2.59474 3.995129,4.75741 6.53125,6.52734 0.612575,0.42746 1.45691,0.41419 1.943359,-0.0723 0.2433,-0.2433 0.332703,-0.5831 0.267578,-0.89454 -0.06512,-0.31143 -0.267574,-0.59595 -0.568359,-0.80664 -2.441252,-1.71001 -4.606506,-3.79494 -6.404297,-6.39062 -0.20881,-0.30139 -0.490437,-0.50578 -0.800779,-0.57225 -0.310341,-0.0665 -0.647519,0.0225 -0.890622,0.26565 z" id="path3300"/>&#xa;      </g>&#xa;      <path id="path8957" style="color:#000000;display:inline;fill:#000000;stroke-width:0.610593;stroke-linecap:round;stroke-linejoin:round;-inkscape-stroke:none" d="m 43.06714,313.98242 c -0.484737,0.001 -0.958395,0.17653 -1.317233,0.53537 -0.4347,0.4347 -0.656098,0.9156 -0.876948,1.36891 -0.044,0.0903 -0.08787,0.17931 -0.133326,0.26768 -0.718966,-0.56687 -1.449507,-1.01876 -2.12235,-1.26349 -0.370978,-0.13493 -0.727263,-0.20746 -1.0604,-0.18965 -0.264875,0.0142 -0.517893,0.092 -0.729673,0.24236 -0.379805,-0.15537 -0.842103,-0.0752 -1.110525,0.19327 -0.486299,0.48631 -0.504405,1.32946 -0.07803,1.94304 0.181006,0.26046 0.366207,0.51662 0.555003,0.76843 l -0.09405,0.0951 c -0.451125,0.45112 -0.503033,1.19623 -0.09353,1.69344 0.270269,0.32815 0.547941,0.64816 0.83199,0.96066 -0.09636,0.1433 -0.162338,0.30228 -0.197403,0.46715 -0.449964,-0.088 -0.916633,0.0457 -1.232485,0.35348 l -1.160134,1.16014 c -0.662874,0.66289 -0.652479,1.74995 0.0155,2.41794 0.667983,0.66796 1.755061,0.67628 2.41794,0.0134 l 1.158587,-1.15807 c 0.327395,-0.3274 0.447521,-0.78637 0.358116,-1.21026 0.166828,-0.033 0.328414,-0.0976 0.473874,-0.19275 0.328729,0.41672 0.300879,1.0179 -0.08423,1.40301 l -1.607137,1.60714 c -0.82563,0.82564 -2.206207,0.79776 -3.091802,-0.0879 -0.885587,-0.88558 -0.915551,-2.26617 -0.08992,-3.0918 l 1.609204,-1.60921 c 0.102613,-0.1032 0.102613,-0.2699 0,-0.3731 -0.103439,-0.10399 -0.271733,-0.10399 -0.375172,0 l -1.607137,1.60765 c -1.038585,1.03858 -0.98769,2.76195 0.08992,3.83956 1.077616,1.07762 2.798905,1.12856 3.83749,0.0899 L 38.963,324.2247 c 0.314124,-0.31412 0.467847,-0.72959 0.462505,-1.14308 0.06888,0.0577 0.137904,0.11524 0.207222,0.17208 0.497909,0.40853 1.242333,0.35542 1.693437,-0.0956 l 0.09354,-0.0935 c 0.246629,0.18484 0.496784,0.36616 0.75034,0.54312 0.612576,0.42746 1.456587,0.41414 1.943034,-0.0723 0.2433,-0.2433 0.332809,-0.58308 0.267684,-0.89452 -0.01566,-0.075 -0.03924,-0.14844 -0.07028,-0.21962 0.150421,-0.21229 0.228518,-0.46701 0.242361,-0.73174 0.01741,-0.33293 -0.05643,-0.68755 -0.191719,-1.05833 -0.245835,-0.67376 -0.699747,-1.40506 -1.268656,-2.12494 0.08805,-0.0453 0.177204,-0.0895 0.267168,-0.13332 0.453303,-0.22086 0.934204,-0.44226 1.368907,-0.87695 0.765524,-0.76551 0.693705,-2.05031 -0.117303,-2.86133 -0.405506,-0.40551 -0.928767,-0.62656 -1.446943,-0.65009 -0.03238,-0.002 -0.06483,-0.002 -0.09715,-0.002 z m 0.01188,0.52813 c 0.404151,5.3e-4 0.82604,0.16613 1.159103,0.4992 0.626949,0.62695 0.658601,1.56814 0.115239,2.1115 -0.359852,0.35984 -0.767215,0.552 -1.226283,0.77566 -0.459068,0.22367 -0.966531,0.48009 -1.441773,0.97462 -0.101404,0.10565 -0.0977,0.27357 0.0083,0.37465 0.105513,0.10154 0.273434,0.0981 0.374656,-0.008 0.183078,-0.19051 0.369974,-0.33985 0.561205,-0.46612 0.567774,0.71069 1.012039,1.43177 1.234032,2.04018 0.118687,0.32528 0.172374,0.61679 0.160198,0.84957 -0.0058,0.11127 -0.02471,0.2079 -0.05736,0.29352 -3.315045,-2.74275 -4.36108,-3.69542 -6.679182,-6.6673 0.08715,-0.0341 0.185282,-0.0539 0.298691,-0.0599 0.233034,-0.0125 0.524155,0.0419 0.849561,0.1602 0.607748,0.22105 1.327298,0.66337 2.037085,1.22938 -0.126092,0.19078 -0.274481,0.37699 -0.464571,0.55965 -0.106159,0.10128 -0.109638,0.2696 -0.0078,0.37518 0.101221,0.10581 0.269142,0.10928 0.374655,0.008 0.494549,-0.47524 0.750956,-0.98219 0.974617,-1.44126 0.22366,-0.45907 0.415819,-0.86644 0.775663,-1.22628 0.254698,-0.2547 0.597344,-0.38294 0.953947,-0.3824 z m -0.602533,0.83717 c -0.20216,0.20215 -0.314494,0.43608 -0.398425,0.65216 -0.05274,0.13599 0.01452,0.28901 0.150378,0.3421 0.13643,0.0538 0.290563,-0.0137 0.343646,-0.15038 0.07325,-0.1886 0.149641,-0.34084 0.277503,-0.4687 0.161849,-0.16186 0.503503,-0.18421 0.888836,0.0233 0.128342,0.0684 0.287825,0.0204 0.357085,-0.10748 0.06988,-0.1287 0.02193,-0.28967 -0.106971,-0.35916 -0.251132,-0.13523 -0.523722,-0.21254 -0.794269,-0.21316 -0.277881,0.004 -0.526431,0.09 -0.717783,0.28137 z m -5.502005,0.39634 c 1.835452,2.65006 4.0469,4.78189 6.533452,6.52364 0.209052,0.14643 0.32309,0.32543 0.355533,0.48059 0.03245,0.15515 7.94e-4,0.28591 -0.125055,0.41186 -0.252023,0.25202 -0.85734,0.29878 -1.265558,0.0139 -2.916319,-2.24809 -4.367247,-3.66805 -6.398577,-6.39496 -0.28385,-0.40847 -0.236691,-1.01543 0.0155,-1.26762 0.282988,-0.24905 0.655281,-0.0903 0.884701,0.23255 z m 4.703072,1.1095 c -0.0299,0.0362 -0.06235,0.0726 -0.09922,0.10749 -0.105378,0.10048 -0.109765,0.26722 -0.0098,0.3731 0.100642,0.10641 0.268576,0.11081 0.374653,0.01 0.0524,-0.0497 0.09919,-0.0998 0.142626,-0.15244 0.09356,-0.11266 0.07781,-0.27989 -0.03514,-0.37311 -0.148971,-0.10141 -0.291494,-0.0465 -0.373105,0.0351 z m -5.159375,1.41955 c 1.318308,1.68503 2.816005,3.17 4.478282,4.46795 l -0.04341,0.0439 c -0.250693,0.25065 -0.715108,0.27989 -0.984435,0.0589 -1.27331,-1.04426 -2.471627,-2.23024 -3.552754,-3.54293 -0.221425,-0.26885 -0.191765,-0.73377 0.05891,-0.98444 z m 1.762167,3.79202 c -0.293759,0.13718 -0.653179,0.12707 -0.907439,-0.1571 -0.254259,-0.28416 -0.289509,-0.57983 -0.15967,-0.9064 z m -1.641761,-0.44803 c 0.05032,0.2427 0.168937,0.47437 0.359151,0.66404 0.186103,0.18555 0.412602,0.30314 0.650092,0.35502 0.105833,0.28165 0.0478,0.61159 -0.180869,0.84025 l -1.160135,1.16014 c -0.457787,0.45778 -1.201589,0.45305 -1.670182,-0.0155 -0.468606,-0.46861 -0.471223,-1.21031 -0.01344,-1.66811 l 1.160135,-1.16014 c 0.246909,-0.24691 0.572368,-0.2959 0.855249,-0.17569 z"/>&#xa;    </g>&#xa;  </g>&#xa;</svg></g></g></g></g></g></g></svg>